<svg width="22" height="22" viewBox="0 0 22 22" fill="none" xmlns="http://www.w3.org/2000/svg">
<g clip-path="url(#clip0_292_151)">
<path d="M11 0C4.92556 0 0 4.92556 0 11C0 17.0744 4.92556 22 11 22C17.0744 22 22 17.0744 22 11C22 4.92556 17.0744 0 11 0ZM18.4018 18.4018C16.4242 20.3793 13.7964 21.4671 11 21.4671C8.20356 21.4671 5.57578 20.3793 3.59822 18.4018C1.62067 16.4242 0.532889 13.7964 0.532889 11C0.532889 8.20356 1.62067 5.57578 3.59822 3.59822C3.64467 3.55178 3.69356 3.50778 3.74 3.46378C3.70333 3.57622 3.66178 3.68867 3.59578 3.78644C3.43933 4.01867 3.18022 4.11156 3.01644 4.32911C2.86733 4.52711 2.75 4.82778 2.69378 5.05022C2.63511 5.29222 2.66933 5.58311 2.58622 5.82511C2.47867 6.13067 2.28311 6.31156 2.31978 6.666C2.74511 6.79311 2.55933 6.03778 2.91867 5.99867C3.03111 6.27978 2.95778 6.80533 2.926 7.11333C2.882 7.53622 2.79889 7.64133 3.05067 8.00311C3.25111 8.29156 3.31711 8.48222 3.70333 8.52867C4.05778 8.57022 4.20444 8.73155 4.35356 9.07378C4.62733 9.13244 4.79356 9.17644 4.82778 9.47956C4.94756 9.54556 5.17 9.75822 5.29467 9.79245C5.47556 9.83889 5.77867 9.58222 5.94978 9.78022C6.23578 10.1127 5.588 10.9829 5.47067 11.2811C5.302 11.7211 5.27511 12.364 5.69311 12.6793C5.90578 12.8407 6.13311 12.9189 6.204 13.2122C6.26756 13.4836 6.21867 13.7109 6.33844 13.9676C6.52667 14.3684 6.95444 14.5004 7.26244 14.806C7.66333 15.2069 7.63644 15.73 7.63644 16.2971C7.63644 16.8642 7.86378 17.3458 7.942 17.8909C8.02267 18.4531 8.18889 18.9738 8.30622 19.5189C8.39422 19.9271 8.74867 20.5456 9.25956 20.4624C9.29622 20.2693 9.09333 20.1178 9.06889 19.9247C9.04689 19.7511 9.09578 19.5678 9.05911 19.382C8.99067 19.0129 8.99311 18.7953 9.24 18.4751C9.32556 18.3627 9.44533 18.2673 9.53578 18.1549C9.70933 17.9349 9.57733 18.0009 9.57 17.7589C9.56022 17.4582 9.65311 17.6049 9.834 17.512C9.92933 17.4631 10.032 17.3164 10.1053 17.2407C10.2642 17.0744 10.5087 16.8789 10.6309 16.6809C10.7678 16.4609 10.7507 16.1529 10.8924 15.9256C11.0538 15.664 11.2836 15.664 11.5109 15.4929C11.8042 15.2729 11.6844 15.0407 11.7382 14.7376C11.8287 14.2316 12.056 13.6742 12.3762 13.2709C12.7771 12.7649 12.9507 12.3322 12.4618 11.8458C12.2198 11.6062 12.0951 11.6698 11.7749 11.5867C11.5304 11.5231 11.3104 11.3447 11.0636 11.3129C10.9144 11.2958 10.8264 11.3471 10.692 11.3129C10.5649 11.2787 10.5796 11.2029 10.4476 11.2029C10.2471 11.2029 9.97089 11.6209 9.80222 11.3544C9.70933 11.2053 9.99289 10.7971 9.98067 10.5991C9.96356 10.3571 9.87311 9.95867 9.636 9.82667C9.54556 9.77533 9.34511 9.768 9.23511 9.72644C9.10556 9.67756 8.97844 9.59689 8.86111 9.52111C8.70956 9.42333 8.41622 9.25467 8.34778 9.07867C8.162 9.07133 8.03489 8.96867 7.84422 8.97111C7.67311 8.97111 7.56067 9.05178 7.37733 9.03222C7.216 9.01511 7.04244 8.888 6.86889 8.91C6.754 8.92711 6.58044 9.07622 6.48022 9.13244C6.21622 9.28156 5.93267 9.38911 5.63933 9.44533C5.18467 9.53089 5.104 9.35733 5.13089 8.93689L5.06244 8.80244C5.23111 8.33311 4.928 8.30133 4.59311 8.18645C4.54667 7.85156 4.95733 7.61444 4.78622 7.24778C4.43911 7.23067 4.06022 8.206 3.76689 7.78311C3.57378 7.50444 3.86711 6.72222 4.03822 6.48756C4.20933 6.248 4.83511 5.82022 5.12844 5.78111C5.35822 5.75178 5.55867 5.85444 5.64667 6.05489C5.742 6.27489 5.61733 6.48022 5.64667 6.72956C5.94 6.66111 5.86422 6.28956 5.852 6.08911C5.83 5.75667 6.006 5.78111 6.17467 5.53911C6.32867 5.31911 6.35311 5.06978 6.54622 4.85956C6.69778 4.69333 6.87378 4.51978 7.03756 4.36822C7.22578 4.19467 7.43844 4.20933 7.63156 4.08222C7.92489 3.88911 7.53622 3.52733 7.96889 3.55422C8.12289 3.564 8.04711 3.65933 8.25 3.61289C8.33556 3.59333 8.49689 3.51267 8.58733 3.476C9.00044 3.30733 8.70711 3.26333 8.51889 3.04578C8.27689 2.76711 8.61911 2.816 8.86844 2.77444C9.05178 2.74267 9.01267 2.684 9.174 2.79156C9.31578 2.88689 9.23267 3.01156 9.438 3.00422C9.82911 2.992 9.55778 2.59844 9.47222 2.46889C9.32311 2.24644 9.284 2.09 8.96867 2.08267C8.998 1.98244 9.00289 1.85044 8.95889 1.75511C8.69244 1.78933 8.64845 1.59622 8.448 1.52044C8.11067 1.39333 8.16444 1.66956 8.02511 1.85778C7.88333 2.05333 7.60956 2.01911 7.50689 2.25622C7.39933 2.50311 7.502 2.69133 7.10356 2.62533C7.15733 2.47622 7.14022 2.28556 7.128 2.12667C7.01311 2.112 6.908 2.08267 6.80044 2.04844C6.80044 1.65 7.24044 1.61822 7.54111 1.57911C7.876 1.53756 7.986 1.19533 8.28422 1.13911C8.56289 1.08533 8.76333 1.53756 9.108 1.276C9.30356 1.12689 9.21311 1.03889 9.14222 0.894667C9.12267 0.855556 9.02489 0.77 8.998 0.733333C8.99556 0.728444 8.99311 0.726 8.99067 0.721111C9.25711 0.669778 9.52844 0.630667 9.79978 0.598889C9.85111 0.748 9.96111 0.926444 10.0222 1.02911C10.0662 1.10489 10.1493 1.15622 10.186 1.23933C10.2276 1.33467 10.1322 1.452 10.2496 1.51556C10.4329 1.61333 10.9707 0.972889 11.0978 0.870222C11.2616 0.738222 11.3642 0.664889 11.3251 0.537778C12.188 0.564667 13.0313 0.694222 13.8429 0.921556C13.9064 1.00222 13.9749 1.08533 14.0409 1.17822C14.1827 1.37622 14.2731 1.55467 14.5322 1.64267C14.6813 1.694 15.158 1.68422 14.96 2.024C14.7767 2.33689 14.5762 1.92622 14.4833 1.82844C14.3562 1.69156 13.9773 1.54 13.9896 1.85289C14.0067 2.31978 15.0627 2.24644 14.8353 2.75978C14.9624 2.83311 15.2118 2.95778 15.1702 3.14111C15.1189 3.36844 14.8231 3.22422 14.8304 3.51511C14.8378 3.92578 15.2876 4.26556 15.7056 4.11644C16.1504 3.95756 15.8156 3.34156 16.324 3.278C16.5244 3.25356 16.6442 3.31222 16.8227 3.454C16.9693 3.56889 17.0647 3.83289 17.2651 3.81333C17.2871 3.68867 17.1918 3.59822 17.1747 3.48333C17.3311 3.52244 17.6464 3.718 17.7344 3.85489C17.8713 4.06022 17.8567 4.35844 18.1867 4.092C18.1378 4.05044 18.1109 3.96 18.084 3.92822C18.5093 3.92822 18.8051 4.10422 18.9884 4.47333C19.3967 5.29711 18.3944 4.64444 18.3456 5.07222C18.0987 4.994 17.9887 4.796 17.776 4.67622C17.6733 4.62 17.4876 4.64933 17.4093 4.59311C17.3018 4.51489 17.3287 4.37311 17.2333 4.29489C16.8642 3.99178 16.0209 4.48067 15.6811 4.67622C15.5882 4.73 15.4904 4.73489 15.4269 4.83511C15.3193 5.00622 15.4709 5.05022 15.4367 5.20911C15.3878 5.43644 15.092 5.54156 15.0016 5.72489C14.7864 6.16244 15.224 6.79067 15.1653 7.27711C15.1336 7.54844 14.8402 7.83933 14.9527 8.06667C15.0016 8.16444 15.1678 8.24756 15.2338 8.36244C15.2924 8.46756 15.3169 8.60444 15.3951 8.712C15.6444 9.06156 16.0038 9.45267 16.2947 9.78022C16.4609 9.966 16.6858 10.0173 16.9376 9.966C17.1453 9.92444 17.4582 9.85356 17.6489 9.76311C17.9056 9.64089 17.9398 9.46733 18.2087 9.58467C18.4238 9.67756 18.612 9.95133 18.8613 9.724C19.0667 9.92444 18.8393 10.2764 18.7929 10.5013C18.7342 10.7898 18.8467 11.0391 19.0251 11.2836C19.2378 11.5769 19.2867 11.6282 19.2427 12.0193C19.2084 12.3249 19.1302 12.6036 19.0667 12.9067C19.0031 13.1951 18.8198 13.4151 18.8296 13.7231C18.8393 14.0067 18.9616 14.234 18.9249 14.5371C18.8931 14.8036 18.876 15.1238 18.8051 15.3853C18.7342 15.6542 18.5436 15.8913 18.4653 16.1651C18.3896 16.4267 18.4116 16.764 18.5924 16.9791C18.7831 17.2016 18.9713 17.0744 19.1938 16.9058C19.6338 16.5709 19.8342 16.0062 20.1251 15.5564C20.4233 15.0969 20.724 14.6764 20.922 14.1998C20.9636 14.0996 21.0149 13.9993 21.0662 13.8991C20.5847 15.5858 19.6802 17.1331 18.4067 18.4091L18.4018 18.4018Z" fill="black"/>
</g>
<defs>
<clipPath id="clip0_292_151">
<rect width="22" height="22" fill="white"/>
</clipPath>
</defs>
</svg>
